<?xml version="1.0" encoding="utf-8"?>
<!-- Generator: Adobe Illustrator 22.1.0, SVG Export Plug-In . SVG Version: 6.00 Build 0)  -->
<svg version="1.1" id="Layer_1" xmlns="http://www.w3.org/2000/svg" xmlns:xlink="http://www.w3.org/1999/xlink" x="0px" y="0px"
	 viewBox="0 0 100 100" style="enable-background:new 0 0 100 100;" xml:space="preserve">
<path d="M78.6,41.3c-0.8,1-1.3,2-1.8,3.6c0.3,8.3,0.9,32,1.1,41.4c0,0-10.5-74.6-11.1-78.5c-1-4.5-18.7-0.9-21.4,4.4
	c-2.4,4.7-7.5,16.2-10.1,27.9c2.2,11.4,7.5,44.7,7.5,44.7C43,86,32.4,47.1,25.9,36.2c-0.4-0.6-1.2-1.6-2.4-1.7
	c-1.7-0.2-13,2.6-19.9,8.3c-1,0.8-1,2.6-0.4,3.7c8,13.8,16.8,38.6,17.4,40.3c0.5,1.6,2.1,3.4,3.6,3.9c1.1,0.4,19.1,1.7,20.1-1.9
	c1.1-4.2,20.2-75.9,20.2-75.9S55.3,69,55.3,69.1c0.6,4,3.5,21.1,5.2,23.4c1,1.3,2.5,1.5,3.7,1.6c1.2,0,10.3,0.3,12.3-0.1
	c1.6-0.3,2.4-1.2,3.2-4.1c5-18.9,7.6-25.7,15.5-43.5C97.8,41.1,80.7,38.9,78.6,41.3z"/>
</svg>
